<svg width="1440" height="237" viewBox="0 0 1440 237" fill="none" xmlns="http://www.w3.org/2000/svg">
<path fill-rule="evenodd" clip-rule="evenodd" d="M943 104.458L921.106 124.201C895.562 143.944 851.774 183.43 804.336 208.108C760.547 232.787 713.109 247.594 665.672 227.851C621.883 208.108 574.445 153.815 527.008 134.072C483.219 114.329 435.781 129.136 391.992 148.879C344.555 168.622 297.117 193.301 253.328 188.365C205.891 183.43 162.102 143.944 114.664 134.072C67.2264 129.136 23.4377 153.815 -2.10565 168.622L-24 183.43V-14H-2.10565C23.4377 -14 67.2264 -14 114.664 -14C162.102 -14 205.891 -14 253.328 -14C297.117 -14 344.555 -14 391.992 -14C435.781 -14 483.219 -14 527.008 -14C574.445 -14 621.883 -14 665.672 -14C713.109 -14 760.547 -14 804.336 -14C851.774 -14 895.562 -14 921.106 -14H943V104.458Z" fill="#00B9F4"/>
<path fill-rule="evenodd" clip-rule="evenodd" d="M428.032 90.9034L458.492 112.658C494.027 134.411 554.947 177.92 620.938 205.106C681.854 232.294 747.842 248.599 813.821 226.82C874.725 205.043 940.694 145.182 1006.67 123.404C1067.58 101.627 1133.57 117.932 1194.48 139.679C1260.47 161.424 1326.46 188.611 1387.37 183.155C1453.35 177.698 1514.25 134.159 1580.23 123.262C1646.21 117.805 1707.13 144.993 1742.66 161.306L1773.12 177.62L1773.07 -40L1742.61 -39.9925C1707.08 -39.9837 1646.17 -39.9687 1580.19 -39.9524C1514.21 -39.9362 1453.3 -39.9212 1387.31 -39.9049C1326.4 -39.8899 1260.42 -39.8736 1194.44 -39.8573C1133.53 -39.8423 1067.54 -39.826 1006.63 -39.811C940.649 -39.7947 874.664 -39.7785 813.755 -39.7635C747.771 -39.7472 681.786 -39.7309 620.878 -39.7159C554.893 -39.6996 493.984 -39.6846 458.454 -39.6759L428 -39.6683L428.032 90.9034Z" fill="#00B9F4"/>
</svg>
