<svg width="1930" height="198" viewBox="0 0 1930 198" fill="none" xmlns="http://www.w3.org/2000/svg">
<path fill-rule="evenodd" clip-rule="evenodd" d="M1246 92.9728L1217.79 108.468C1184.88 123.964 1128.45 154.955 1067.33 174.324C1010.91 193.693 949.781 205.315 888.657 189.819C832.234 174.324 771.109 131.711 709.985 116.216C653.562 100.721 592.438 112.342 536.015 127.838C474.891 143.333 413.766 162.702 357.343 158.829C296.219 154.955 239.796 123.964 178.672 116.216C117.547 112.342 61.1246 131.711 28.2114 143.333L3.67165e-05 154.955V0H28.2114C61.1246 0 117.547 0 178.672 0C239.796 0 296.219 0 357.343 0C413.766 0 474.891 0 536.015 0C592.438 0 653.562 0 709.985 0C771.109 0 832.234 0 888.657 0C949.781 0 1010.91 0 1067.33 0C1128.45 0 1184.88 0 1217.79 0H1246V92.9728Z" fill="#00B9F4"/>
<path fill-rule="evenodd" clip-rule="evenodd" d="M661.029 93.2112L689.746 108.7C723.248 124.188 780.682 155.165 842.898 174.521C900.328 193.878 962.541 205.487 1024.75 189.98C1082.17 174.475 1144.36 131.854 1206.57 116.347C1263.99 100.842 1326.2 112.45 1383.63 127.934C1445.84 143.416 1508.06 162.772 1565.48 158.887C1627.69 155.002 1685.1 124.002 1747.31 116.243C1809.52 112.357 1866.95 131.714 1900.45 143.328L1929.17 154.943L1929.12 9.79667e-06L1900.4 0.00556077C1866.91 0.0120369 1809.48 0.0231389 1747.27 0.035166C1685.06 0.0471932 1627.64 0.0582951 1565.43 0.0703223C1508.01 0.0814242 1445.8 0.0934513 1383.59 0.105478C1326.16 0.11658 1263.95 0.128608 1206.53 0.13971C1144.32 0.151737 1082.11 0.163764 1024.69 0.174866C962.477 0.186893 900.267 0.19892 842.843 0.210022C780.634 0.222049 723.209 0.233151 689.712 0.239627L661 0.245178L661.029 93.2112Z" fill="#00B9F4"/>
</svg>
